<?xml version="1.0" encoding="utf-8"?>
<!-- Generator: Adobe Illustrator 15.1.0, SVG Export Plug-In . SVG Version: 6.00 Build 0)  -->
<!DOCTYPE svg PUBLIC "-//W3C//DTD SVG 1.1//EN" "http://www.w3.org/Graphics/SVG/1.1/DTD/svg11.dtd">
<svg version="1.1" id="Vrstva_1" xmlns="http://www.w3.org/2000/svg" xmlns:xlink="http://www.w3.org/1999/xlink" x="0px" y="0px"
	 width="40px" height="40px" viewBox="0 0 40 40" enable-background="new 0 0 40 40" xml:space="preserve">
<path d="M14.5,3C20.841,3,26,8.159,26,14.5S20.841,26,14.5,26S3,20.841,3,14.5S8.159,3,14.5,3 M14.5,0C6.491,0,0,6.491,0,14.5
	C0,22.51,6.491,29,14.5,29C22.508,29,29,22.51,29,14.5C29,6.491,22.508,0,14.5,0L14.5,0z"/>
<g>
	<path d="M39.293,36.465c0.389,0.389,0.389,1.025,0,1.414l-1.414,1.414c-0.389,0.389-1.025,0.389-1.414,0L25.15,27.979
		c-0.39-0.389-0.39-1.024,0-1.414l1.414-1.414c0.39-0.389,1.025-0.389,1.414,0L39.293,36.465z"/>
</g>
</svg>
