<?xml version="1.0" standalone="no"?>
<!DOCTYPE svg PUBLIC "-//W3C//DTD SVG 20010904//EN"
 "http://www.w3.org/TR/2001/REC-SVG-20010904/DTD/svg10.dtd">
<svg version="1.0" xmlns="http://www.w3.org/2000/svg"
 width="200.000000pt" height="200.000000pt" viewBox="0 0 200.000000 200.000000"
 preserveAspectRatio="xMidYMid meet">

<g transform="translate(0.000000,200.000000) scale(0.100000,-0.100000)"
fill="#111111" stroke="none">
<path d="M425 1845 c-71 -19 -117 -79 -85 -111 10 -10 -3 -103 -19 -130 -3 -6
-39 -40 -79 -75 -100 -87 -117 -120 -115 -234 0 -69 8 -115 32 -198 41 -141
41 -145 -5 -118 -35 21 -94 29 -94 13 0 -13 32 -37 68 -52 17 -7 32 -15 32
-18 0 -3 -14 -27 -30 -53 -31 -47 -31 -47 -14 -83 14 -28 20 -33 31 -25 7 6
13 21 13 34 0 28 20 85 30 85 4 0 13 -41 20 -90 8 -57 17 -89 24 -87 6 2 12
13 14 25 4 29 13 28 43 -4 13 -15 46 -37 73 -50 l49 -23 -40 -10 c-23 -6 -93
-24 -157 -40 -65 -16 -120 -31 -123 -35 -3 -3 -3 -13 1 -22 8 -22 19 -20 396
83 264 71 920 238 1225 310 67 16 80 23 83 41 4 27 -1 27 -116 -2 -50 -13 -94
-21 -96 -17 -2 3 -13 42 -25 86 -12 44 -24 88 -27 97 -4 13 5 20 36 28 46 12
46 12 16 115 -12 38 -14 40 -49 37 -32 -3 -37 -1 -37 18 0 16 -5 20 -17 16
-10 -3 -40 -10 -68 -16 -27 -5 -67 -14 -88 -19 -25 -6 -39 -5 -44 2 -4 6 -1
13 6 15 31 10 81 67 91 101 18 68 -14 132 -91 181 -67 44 -105 90 -112 137 -4
22 -14 46 -22 53 -31 26 -108 6 -120 -30 -3 -9 1 -33 10 -53 21 -50 19 -122
-5 -190 -25 -72 -25 -111 0 -152 22 -36 63 -59 123 -70 20 -4 37 -11 37 -15 0
-4 -35 -19 -77 -34 -102 -36 -109 -40 -105 -63 2 -14 -4 -22 -20 -26 -30 -8
-34 -2 -14 28 16 24 16 29 2 50 -22 33 -78 49 -148 41 l-60 -6 32 40 c18 22
45 47 61 56 31 16 30 17 45 -33 4 -16 40 -17 49 -2 4 5 1 24 -5 40 -10 23 -10
33 -1 42 12 12 14 81 2 110 -3 10 -18 23 -31 30 -19 9 -26 23 -30 52 -4 30
-10 41 -25 43 -38 4 -47 -11 -30 -51 8 -20 15 -39 15 -41 0 -3 -16 -13 -37
-22 -20 -10 -50 -37 -66 -61 -17 -23 -66 -70 -109 -102 l-77 -60 -12 42 c-6
23 -17 54 -24 68 -13 24 -12 26 16 36 19 7 33 23 40 41 6 17 19 32 30 35 15 4
19 14 19 46 0 39 2 41 41 51 44 12 54 27 45 65 -24 94 -181 162 -301 130z
m184 -60 c69 -35 67 -50 -6 -41 -32 3 -95 9 -140 13 -84 6 -94 11 -69 32 45
37 138 36 215 -4z m528 -21 c3 -9 -36 -34 -52 -34 -8 0 -6 36 2 44 10 10 46 3
50 -10z m-606 -44 c41 -11 94 -20 119 -20 33 0 41 -3 30 -10 -8 -5 -33 -10
-55 -10 -46 0 -185 39 -185 51 0 12 7 12 91 -11z m629 -62 c11 -24 20 -37 20
-30 0 17 82 -41 121 -86 37 -41 41 -108 8 -138 -17 -16 -22 -16 -29 -4 -6 8
-10 27 -10 42 0 34 -31 52 -77 45 -58 -10 -66 -23 -43 -68 11 -21 20 -43 20
-49 0 -21 -43 -9 -71 21 -35 38 -37 77 -8 151 14 36 19 67 16 96 -3 32 -1 45
12 52 9 5 17 10 19 10 2 0 12 -19 22 -42z m-730 23 c0 -6 -5 -13 -10 -16 -6
-4 -8 -15 -5 -26 4 -13 2 -19 -9 -19 -20 0 -31 37 -16 55 14 17 40 20 40 6z
m94 -21 c18 -7 24 -14 19 -26 -5 -14 -2 -16 20 -10 24 6 27 3 27 -18 0 -17 -7
-26 -25 -30 -21 -5 -25 -12 -23 -34 3 -25 0 -27 -30 -25 -18 0 -41 8 -51 17
-24 22 -31 20 -31 -8 0 -13 14 -40 30 -61 37 -47 48 -84 29 -96 -30 -19 -48
-8 -78 46 -31 54 -71 85 -111 85 -11 0 -20 2 -20 5 0 2 19 22 43 44 27 27 51
41 69 41 17 0 31 8 38 20 6 11 19 20 29 20 10 0 21 9 24 20 6 23 7 23 41 10z
m401 -130 c3 -5 -10 -16 -30 -24 -40 -17 -46 -28 -12 -26 39 4 57 0 57 -10 0
-5 -8 -10 -18 -10 -11 0 -27 -9 -36 -19 -10 -11 -28 -22 -40 -25 -13 -3 -52
-40 -87 -82 -65 -78 -104 -104 -159 -104 -28 0 -30 2 -30 39 0 34 3 39 28 44
42 9 148 92 188 147 20 28 37 50 37 50 1 0 20 7 42 15 49 17 52 18 60 5z
m-632 -81 c28 -13 41 -33 77 -120 l27 -68 -24 -23 c-13 -12 -29 -42 -35 -65
-6 -24 -14 -43 -19 -43 -11 0 -49 73 -64 125 -25 82 -45 28 -25 -65 6 -30 21
-85 33 -122 20 -66 20 -87 -2 -73 -41 25 -91 203 -91 323 0 79 2 85 29 113 31
31 55 36 94 18z m945 -34 c16 -35 15 -52 -4 -59 -23 -9 -44 12 -44 44 0 47 30
56 48 15z m-733 -105 c-3 -5 -10 -10 -16 -10 -5 0 -9 5 -9 10 0 6 7 10 16 10
8 0 12 -4 9 -10z m983 4 c-6 -5 -271 -77 -348 -94 -19 -4 -47 -11 -62 -15 -16
-4 -28 -3 -28 2 0 13 154 65 265 89 96 21 184 30 173 18z m57 -46 c14 -39 9
-61 -15 -69 -29 -9 -178 -51 -360 -102 -248 -70 -524 -137 -531 -130 -4 5 -9
21 -11 37 -4 34 -19 28 312 116 124 33 306 82 405 109 207 57 194 55 200 39z
m-630 -20 c32 -14 31 -18 -2 -50 -35 -31 -79 -49 -118 -46 -16 1 -90 -17 -162
-42 -73 -24 -136 -41 -139 -37 -4 4 -3 26 2 49 10 48 6 46 156 69 50 8 94 22
125 40 52 30 97 36 138 17z m-445 -38 c12 -8 12 -15 -3 -57 -9 -26 -17 -60
-17 -74 0 -37 -47 -48 -72 -17 -28 32 -23 82 13 123 31 35 52 42 79 25z m1030
-122 c6 -24 16 -60 21 -81 6 -21 12 -44 15 -51 3 -8 -9 -17 -31 -23 -27 -9
-37 -9 -40 0 -10 31 -45 168 -45 176 0 9 21 16 57 20 7 0 17 -18 23 -41z m-94
-92 c16 -61 19 -86 11 -86 -11 0 -58 155 -57 185 1 29 26 -26 46 -99z m-76 42
c6 -24 17 -64 24 -91 15 -52 15 -52 -30 -61 l-32 -7 -21 79 c-26 95 -26 109
-3 115 44 12 51 7 62 -35z m-103 -76 c12 -48 20 -89 17 -91 -5 -6 -356 -92
-359 -89 -2 2 -6 15 -10 29 l-7 27 163 39 c109 27 165 45 171 57 14 25 -27 21
-195 -20 -81 -20 -150 -34 -152 -32 -3 2 -8 18 -11 35 l-6 31 93 22 c52 12
130 34 174 49 44 16 85 29 90 29 6 1 20 -38 32 -86z m-638 14 c14 -58 14 -58
46 -52 30 6 33 4 38 -23 3 -16 9 -41 13 -56 l7 -28 -119 5 c-127 5 -173 19
-195 59 -16 30 -4 34 34 10 18 -11 73 -27 123 -35 49 -9 100 -18 114 -21 l25
-7 -23 21 c-13 11 -41 25 -61 31 -49 13 -71 39 -78 88 -4 33 -2 42 18 56 13 9
28 15 34 13 5 -2 16 -29 24 -61z m-181 -8 c-5 -15 -107 -46 -152 -47 l-29 -1
20 -22 c27 -29 95 -148 84 -148 -18 0 -72 70 -95 124 -14 32 -26 60 -26 61 0
4 84 31 115 38 44 10 87 7 83 -5z m405 -105 c10 -43 21 -83 23 -88 2 -6 -14
-16 -36 -22 l-40 -10 -11 41 c-6 23 -17 63 -25 90 -8 27 -14 51 -14 52 0 3 39
11 65 13 17 1 23 -11 38 -76z m-335 -190 c-10 -2 -26 -2 -35 0 -10 3 -2 5 17
5 19 0 27 -2 18 -5z"/>
<path d="M1200 1558 c0 -9 -13 -21 -30 -27 -43 -15 -37 -21 20 -21 55 0 64 14
30 45 -17 15 -20 16 -20 3z"/>
<path d="M1733 828 c-13 -6 -25 -19 -28 -29 -8 -25 -25 -24 -25 1 0 26 -2 25
-57 -7 -41 -23 -43 -27 -25 -34 27 -10 32 -20 58 -113 16 -55 20 -85 13 -97
-13 -25 -11 -31 9 -25 9 3 36 10 60 16 41 11 42 12 24 28 -22 20 -68 163 -59
186 4 9 19 21 34 27 47 18 67 0 92 -82 12 -41 27 -86 34 -100 l12 -27 55 18
c30 10 47 18 38 19 -28 2 -45 27 -72 109 -15 44 -37 89 -49 101 -25 23 -76 27
-114 9z"/>
<path d="M1395 746 c-56 -18 -85 -35 -85 -50 0 -13 38 -53 43 -45 2 2 11 16
20 32 29 45 97 31 97 -21 0 -4 -29 -27 -64 -49 -50 -32 -65 -48 -71 -72 -8
-39 13 -76 50 -85 36 -9 101 10 119 36 12 17 18 19 30 9 11 -9 24 -10 58 -1
l43 12 -26 22 c-17 14 -37 52 -59 112 -40 116 -62 129 -155 100z m109 -182 c6
-29 4 -33 -28 -48 -27 -13 -41 -14 -56 -6 -34 18 -23 50 28 85 40 27 45 24 56
-31z"/>
<path d="M848 698 c-44 -34 -4 -83 41 -52 26 19 27 40 2 54 -24 13 -24 13 -43
-2z"/>
<path d="M1118 681 c-50 -10 -83 -34 -98 -71 -24 -57 11 -92 106 -105 27 -4
57 -12 67 -17 23 -12 22 -45 -2 -58 -25 -13 -88 -13 -96 0 -14 22 -35 10 -35
-20 0 -29 1 -30 48 -30 103 0 172 43 172 106 0 48 -35 71 -121 80 -53 5 -72
11 -80 25 -13 26 30 54 69 45 55 -13 57 -12 57 19 0 34 -19 39 -87 26z"/>
<path d="M684 601 c-4 -17 -15 -38 -25 -47 -24 -22 -24 -44 0 -44 16 0 23 -16
41 -92 30 -130 47 -145 130 -112 50 20 47 38 -8 42 -23 2 -42 5 -42 7 0 2 -11
44 -24 94 l-25 91 27 7 c51 12 58 47 7 37 -31 -5 -35 -4 -41 20 -8 35 -33 33
-40 -3z"/>
<path d="M866 591 c-35 -23 -37 -26 -18 -29 24 -4 42 -52 65 -170 7 -41 16
-61 24 -58 6 3 28 8 47 12 42 7 42 8 18 32 -10 10 -31 63 -47 118 -15 54 -33
104 -39 110 -8 9 -21 5 -50 -15z"/>
<path d="M545 514 c-14 -15 -25 -31 -25 -36 0 -5 -4 -6 -10 -3 -5 3 -10 15
-10 26 0 26 -12 24 -63 -8 -41 -26 -41 -27 -17 -33 21 -5 29 -19 53 -98 16
-51 26 -100 23 -108 -9 -22 -40 -16 -67 14 -30 32 -175 217 -186 237 -7 11
-17 11 -63 1 -41 -10 -49 -14 -30 -17 18 -3 24 -10 23 -24 -29 -242 -38 -302
-51 -318 -27 -31 -7 -31 97 -1 11 4 9 9 -8 20 -18 13 -22 24 -19 62 l3 47 59
15 58 15 30 -35 c19 -23 28 -43 25 -58 -5 -27 0 -26 141 14 45 13 84 24 87 24
3 0 5 5 5 10 0 6 -7 10 -15 10 -14 0 -55 115 -55 154 0 34 20 56 50 56 30 0
40 13 32 43 -6 25 -39 21 -67 -9z m-265 -170 c0 -10 -78 -29 -86 -21 -2 1 0
29 3 62 l6 59 39 -45 c21 -24 38 -49 38 -55z"/>
</g>
</svg>
